<svg xmlns="http://www.w3.org/2000/svg" viewBox="0 0 330 330" width="800" height="800">
<defs>
<linearGradient id="back" x1="0" y1="0" x2="0" y2="1">
<stop stop-color="#dde" offset="0" />
<stop stop-color="#eef" offset="0.6" />
<stop stop-color="#dcd" offset="0.75" />
<stop stop-color="#edd" offset="1" />
</linearGradient>
</defs>
<rect width="330" height="330" fill="url(#back)" />
<g stroke-linecap="round" stroke-linejoin="round">
<g fill="#fb7" stroke="#d60" stroke-width="3">
<path d="m235 100 50 20 40 50 -60 -20" />
<path d="m65 150 -60 20 40 -50 50 -20" />
<path d="m65 150 30 -50 h140 l30 50" fill="#e94" />
<path d="m95 100 v130 h140 v-130" fill="none" />
<path d="m65 150 h200 v125 h-200 z" />
</g>
<g transform="matrix(0.5,0,0,0.5,115,162.5)" stroke-width="5">
<circle cx="100" cy="100" r="95" fill="#feb" stroke="#fc2" />
<g fill="#fb2">
<path id="seg" d="m100 105 20 55 c12 33 -52 33 -40 0 z" />
<use transform="rotate(40,100,100)" href="#seg" />
<use transform="rotate(80,100,100)" href="#seg" />
<use transform="rotate(120,100,100)" href="#seg" />
<use transform="rotate(160,100,100)" href="#seg" />
<use transform="rotate(200,100,100)" href="#seg" />
<use transform="rotate(240,100,100)" href="#seg" />
<use transform="rotate(-80,100,100)" href="#seg" />
<use transform="rotate(-40,100,100)" href="#seg" />
</g>
</g>
<g transform="matrix(2.5,0,0,2.5,65,0)" stroke="#222" stroke-width="0.6">
<g fill="#779">
<path d="m18 37 a25 23 0 0 1 44 0" />
<path d="m30 28 c-3 -4 -11 -9 -13 -9 -1 2 -1 13 0 20" />
<path d="m50 28 c3 -4 11 -9 13 -9 1 2 1 13 0 20" />
<path d="m18 36 a25 22 0 1 0 44 0" />
</g>
<path d="m38 54 2 -2 2 2" fill="none" />
<g fill="#fff">
<ellipse cx="30" cy="44" rx="5" ry="6" />
<ellipse cx="50" cy="44" rx="5" ry="6" />
</g>
</g>
<path d="m65 150 -10 70 h220 l-10 -70 z" fill="#fb7" stroke="#d60" stroke-width="3" />
<g transform="matrix(2.5,0,0,2.5,65,0)" fill="#ccd" stroke="#222" stroke-width="0.6">
<ellipse cx="17" cy="58" rx="6" ry="5" />
<ellipse cx="63" cy="58" rx="6" ry="5" />
</g>
</g>
</svg>
