<svg xmlns="http://www.w3.org/2000/svg" viewBox="0 0 330 330" width="800" height="800">
<defs>
<linearGradient id="back" x1="0" y1="0" x2="0" y2="1">
<stop stop-color="#dde" offset="0" />
<stop stop-color="#eef" offset="0.6" />
<stop stop-color="#dcd" offset="0.75" />
<stop stop-color="#edd" offset="1" />
</linearGradient>
</defs>
<rect width="330" height="330" fill="url(#back)" />
<g stroke-linecap="round" stroke-linejoin="round">
<g fill="#fb7" stroke="#d60" stroke-width="3">
<path d="m65 150 h200 v125 h-200 z" stroke="#d60" stroke-width="3" />
<path d="m95 100 -30 50 h200 l-30 -50 z" />
</g>
<path d="m86 115 -6 10 h170 l-6 -10 z" fill="#e94" stroke="#e94" stroke-width="3" stroke-linejoin="miter" />
<g transform="matrix(0.5,0,0,0.5,115,162.5)" stroke-width="5">
<circle cx="100" cy="100" r="95" fill="#feb" stroke="#fc2" />
<g fill="#fb2">
<path id="seg" d="m100 105 20 55 c12 33 -52 33 -40 0 z" />
<use transform="rotate(40,100,100)" href="#seg" />
<use transform="rotate(80,100,100)" href="#seg" />
<use transform="rotate(120,100,100)" href="#seg" />
<use transform="rotate(160,100,100)" href="#seg" />
<use transform="rotate(200,100,100)" href="#seg" />
<use transform="rotate(240,100,100)" href="#seg" />
<use transform="rotate(-80,100,100)" href="#seg" />
<use transform="rotate(-40,100,100)" href="#seg" />
</g>
</g>
</g>
</svg>
