<svg xmlns="http://www.w3.org/2000/svg" viewBox="0 0 100 100" width="800" height="800">
<defs>
<linearGradient id="table-edge" x1="7" x2="93" y1="70" y2="70" gradientUnits="userSpaceOnUse">
<stop stop-color="#bcf" offset="0" />
<stop stop-color="#568" offset="0.2" />
<stop stop-color="#346" offset="0.5" />
<stop stop-color="#568" offset="0.8" />
<stop stop-color="#bcf" offset="1" />
</linearGradient>
<radialGradient id="table-top" cx="50" cy="30" fx="50" fy="20" r="42" gradientTransform="matrix(1 0 0 0.35 0 60)" gradientUnits="userSpaceOnUse">
<stop stop-color="#78b" offset="0" />
<stop stop-color="#89c" offset="0.3" />
<stop stop-color="#bcf" offset="1" />
</radialGradient>
</defs>
<circle cx="50" cy="50" r="50" fill="#bcf" />
<path d="m24 26 20 20 32 -32" fill="none" stroke="#9ae" stroke-width="16" />
<g stroke="#222" stroke-linecap="round" stroke-linejoin="round" stroke-width="0.3">
<g fill="#779">
<path d="m28 47 a25 23 0 0 1 44 0" />
<path d="m40 38 c-3 -4 -11 -9 -13 -9 -1 2 -1 13 0 20" />
<path d="m60 38 c3 -4 11 -9 13 -9 1 2 1 13 0 20" />
<path d="m28 46 a25 22 0 1 0 44 0" />
</g>
<path d="m48 64 2 -2 2 2" fill="none" />
<g fill="#fff">
<ellipse cx="40" cy="54" rx="5" ry="6" />
<ellipse cx="60" cy="54" rx="5" ry="6" />
</g>
<path d="m8 70 h84 c-20 38 -68 38 -84 0 z" fill="url(#table-top)" stroke="none" />
<path d="m7 70 h86" fill="none" stroke="url(#table-edge)" />
<g fill="#ccd">
<ellipse cx="27" cy="68" rx="6" ry="5" />
<ellipse cx="73" cy="68" rx="6" ry="5" />
</g>
</g>
<g fill="#009">
<path d="m29.874 25.844 q-0.324 0 -0.684 -0.054 -1.458 -0.216 -2.52 -1.116 -1.044 -0.9 -1.62 -2.214 -0.558 -1.332 -0.558 -2.808 0 -1.206 0.396 -2.34 0.378 -1.098 0.972 -2.142 t1.512 -1.962 2.25 -1.638 q1.35 -0.72 3.24 -1.17 1.89 -0.468 4.446 -0.576 0.252 -0.018 0.594 -0.018 0.36 0 0.72 0 0.504 0 0.972 0 t0.738 0.018 q0.144 0 0.144 0.144 0 0.126 -0.144 0.126 -0.648 0.018 -1.044 0.45 t-0.792 1.116 q-0.216 0.45 -0.36 1.026 0.918 0.288 1.71 0.918 0.792 0.612 1.35 1.422 0.738 -1.26 1.53 -2.448 0.81 -1.188 1.656 -2.16 1.008 -1.152 1.998 -1.656 0.99 -0.522 1.782 -0.522 0.918 0 1.476 0.594 0.576 0.576 0.576 1.566 0 1.044 -0.792 2.448 -0.774 1.404 -2.61 2.934 -0.918 0.756 -2.088 1.35 -1.152 0.576 -2.412 0.972 v0.27 q0 1.206 -0.36 1.872 t-0.882 0.918 q-0.504 0.252 -0.954 0.252 -0.342 0 -0.594 -0.09 -0.234 -0.108 -0.27 -0.234 v-0.036 q0 -0.09 0.09 -0.09 0.09 -0.018 0.108 0.072 0.018 0.018 0.198 0.09 t0.468 0.072 q0.144 0 0.306 -0.018 0.162 -0.036 0.342 -0.108 0.504 -0.198 0.918 -0.792 t0.414 -1.908 v-0.198 q-1.08 0.324 -2.232 0.486 -0.18 0.27 -0.36 0.54 -0.18 0.252 -0.378 0.504 -0.828 1.17 -1.674 2.124 t-1.656 1.494 q-0.792 0.558 -1.494 0.522 -0.144 0 -0.144 -0.108 0 -0.072 0.072 -0.126 0.702 -0.486 1.134 -1.26 0.45 -0.774 0.702 -1.728 0.27 -0.972 0.414 -1.98 -1.17 -0.18 -2.178 -0.594 -1.008 -0.432 -1.602 -1.116 t-0.54 -1.602 q0.072 -1.026 0.648 -1.674 t1.44 -0.954 q0.882 -0.306 1.836 -0.306 0.36 0 0.702 0.036 t0.684 0.108 q0.09 -0.27 0.216 -0.468 0.27 -0.468 0.756 -1.044 0.486 -0.594 1.08 -0.846 -0.432 -0.036 -0.882 -0.054 -0.432 -0.018 -0.882 -0.018 -1.962 0 -3.888 0.414 -1.908 0.396 -3.6 1.278 -1.674 0.864 -2.952 2.268 t-1.962 3.384 q-0.414 1.206 -0.414 2.412 0 1.368 0.504 2.592 0.522 1.224 1.476 2.052 t2.304 1.026 q0.162 0.018 0.324 0.018 0.162 0.018 0.324 0.018 1.152 0 2.124 -0.54 t1.278 -1.62 q0.018 -0.09 0.126 -0.09 0.162 0 0.126 0.162 -0.216 0.792 -0.774 1.314 t-1.314 0.774 q-0.756 0.27 -1.566 0.27 z m12.42 -7.974 q2.232 -0.72 3.996 -2.124 1.26 -1.008 2.052 -2.034 0.81 -1.026 1.188 -1.926 0.396 -0.918 0.396 -1.602 0 -0.594 -0.288 -0.936 -0.288 -0.36 -0.828 -0.36 -0.576 0 -1.44 0.468 -0.846 0.468 -1.944 1.566 -0.954 0.972 -1.89 2.268 t-1.836 2.664 q0.234 0.468 0.378 0.99 0.162 0.504 0.216 1.026 z m-5.778 0.54 q0.144 -0.972 0.216 -1.908 0.09 -0.954 0.198 -1.71 0.09 -0.576 0.198 -1.098 t0.27 -0.972 q-0.504 -0.108 -1.062 -0.108 -0.846 0 -1.638 0.288 -0.774 0.27 -1.278 0.882 -0.504 0.594 -0.576 1.548 -0.054 0.828 0.414 1.458 t1.314 1.044 q0.846 0.396 1.944 0.576 z m1.224 0.126 q0.36 0.018 0.72 0.018 0.378 -0.018 0.738 -0.054 0.468 -0.774 0.918 -1.602 0.468 -0.846 0.972 -1.674 -0.558 -0.792 -1.332 -1.404 -0.756 -0.63 -1.656 -0.918 -0.162 0.864 -0.198 1.89 t-0.054 2.016 q0 0.972 -0.108 1.728 z m2.286 -0.126 q0.522 -0.09 1.026 -0.198 0.522 -0.108 1.026 -0.27 -0.072 -0.954 -0.522 -1.872 z m-4.41 4.59 q0.792 -0.288 1.656 -1.458 0.864 -1.188 1.8 -2.79 -0.342 0.018 -0.684 0.036 -0.342 0 -0.666 -0.018 -0.18 1.152 -0.648 2.25 t-1.458 1.98 z m8.91 0.18 q-0.774 0 -1.098 -0.522 -0.324 -0.54 -0.324 -1.224 0 -0.414 0.09 -0.81 t0.216 -0.738 q0.198 -0.486 0.558 -1.026 0.378 -0.558 0.9 -0.954 t1.134 -0.396 q0.504 0 0.702 0.288 0.198 0.27 0.198 0.684 0 0.072 0 0.144 0 0.054 -0.018 0.144 -0.054 0.486 -0.378 1.008 t-0.81 0.882 q-0.486 0.342 -1.044 0.342 -0.324 0 -0.576 -0.18 -0.162 0.612 -0.162 1.116 0 0.414 0.144 0.684 0.162 0.27 0.486 0.27 0.378 0 0.9 -0.324 0.54 -0.342 1.152 -1.152 0.63 -0.81 1.278 -2.214 0 -0.018 0.036 -0.018 0.054 0 0.108 0.054 0.072 0.036 0.036 0.072 -0.882 1.998 -1.872 2.934 -0.972 0.936 -1.656 0.936 z m0.036 -2.466 q0.396 0 0.774 -0.288 0.378 -0.306 0.684 -0.756 0.306 -0.468 0.486 -0.936 0.072 -0.198 0.072 -0.45 0 -0.234 -0.09 -0.396 -0.072 -0.18 -0.27 -0.18 -0.324 0 -0.702 0.414 -0.378 0.396 -0.702 0.954 -0.324 0.54 -0.486 0.99 -0.054 0.126 -0.108 0.27 -0.036 0.126 -0.072 0.27 0.216 0.108 0.414 0.108 z m4.446 2.376 q-0.756 0 -0.756 -0.846 0 -0.324 0.126 -0.774 t0.396 -0.99 q0.144 -0.324 0.396 -0.774 0.252 -0.468 0.45 -0.918 0.216 -0.45 0.216 -0.72 t-0.288 -0.27 q-0.126 0 -0.324 0.072 -0.198 0.054 -0.54 0.144 -0.144 0.36 -0.468 1.008 -0.306 0.63 -0.684 1.296 t-0.72 1.152 q0 0 -0.018 0.018 0 0 -0.036 0 t-0.108 -0.018 q-0.054 -0.036 -0.036 -0.054 0.288 -0.414 0.594 -0.954 0.306 -0.558 0.576 -1.098 0.288 -0.54 0.468 -0.918 0.198 -0.396 0.216 -0.468 -0.27 -0.09 -0.432 -0.414 -0.144 -0.342 -0.144 -0.684 0 -0.306 0.144 -0.522 t0.432 -0.216 q0.216 0 0.288 0.234 0.09 0.216 0.09 0.522 0 0.396 -0.09 0.792 0 0 0.198 -0.036 t0.468 -0.054 q0.27 -0.036 0.468 -0.036 0.594 0 0.594 0.576 0 0.36 -0.198 0.936 -0.198 0.558 -0.504 1.296 -0.612 1.458 -0.612 2.052 0 0.36 0.234 0.36 0.288 0 0.81 -0.468 t0.954 -1.17 q0.45 -0.72 1.098 -1.926 0.018 -0.036 0.054 -0.036 0.054 0 0.09 0.054 0.054 0.036 0.036 0.072 -0.99 1.872 -1.728 2.826 t-1.71 0.954 z m5.976 -6.75 q-0.252 0 -0.432 -0.162 -0.162 -0.18 -0.162 -0.414 0 -0.306 0.198 -0.522 0.216 -0.216 0.504 -0.216 0.252 0 0.432 0.18 t0.18 0.45 q0 0.288 -0.216 0.486 t-0.504 0.198 z m-1.98 6.75 q-0.324 0 -0.522 -0.234 -0.18 -0.252 -0.18 -0.648 0 -0.504 0.198 -1.08 0.216 -0.576 0.486 -1.152 0.288 -0.594 0.504 -1.116 0.09 -0.252 0.162 -0.45 t0.072 -0.324 q0 -0.18 -0.162 -0.18 -0.216 0 -0.432 0.27 t-0.396 0.612 q-0.162 0.324 -0.27 0.522 -0.27 0.522 -0.594 1.08 -0.306 0.558 -0.63 1.026 0 0.018 -0.036 0.018 t-0.09 -0.054 -0.036 -0.072 q0.342 -0.486 0.63 -1.026 0.306 -0.558 0.558 -1.062 0.18 -0.378 0.396 -0.774 0.234 -0.414 0.54 -0.684 0.306 -0.288 0.702 -0.288 0.18 0 0.414 0.09 0.27 0.108 0.27 0.468 0 0.18 -0.072 0.432 -0.054 0.234 -0.162 0.54 -0.234 0.612 -0.522 1.242 -0.27 0.612 -0.504 1.242 -0.18 0.486 -0.18 0.864 0 0.414 0.27 0.414 0.252 0 0.774 -0.45 0.522 -0.468 0.972 -1.17 0.45 -0.72 1.08 -1.926 0.018 -0.036 0.072 -0.036 0.036 0 0.072 0.054 0.054 0.036 0.036 0.072 -0.954 1.854 -1.71 2.826 -0.756 0.954 -1.71 0.954 z m1.854 6.966 q-0.108 0 -0.216 -0.054 -0.288 -0.144 -0.432 -0.576 t-0.144 -1.08 q0 -0.81 0.198 -1.926 0.18 -1.098 0.504 -2.376 0.324 -1.26 0.738 -2.574 -0.054 -0.144 -0.054 -0.306 0 -0.18 0.072 -0.324 t0.252 -0.18 q0.432 -1.332 0.9 -2.592 0.486 -1.278 0.954 -2.376 0.468 -1.116 0.882 -1.944 t0.738 -1.278 q0.468 -0.63 0.972 -0.954 0.522 -0.342 0.918 -0.342 0.306 0 0.486 0.198 0.18 0.18 0.18 0.594 0 0.396 -0.234 1.008 -0.216 0.594 -0.738 1.44 -0.396 0.63 -0.9 1.332 -0.486 0.684 -0.99 1.332 t-0.972 1.17 q-0.45 0.504 -0.774 0.792 l-0.63 1.818 q0.144 0.126 0.324 0.414 t0.198 0.666 q0.144 0.036 0.27 0.072 0.126 0.018 0.252 0.018 0.576 0 1.044 -0.504 0.468 -0.522 1.116 -1.728 0.036 -0.054 0.072 -0.054 0.054 0 0.072 0.054 0.036 0.054 0 0.126 -0.234 0.432 -0.45 0.828 -0.198 0.378 -0.432 0.684 -0.324 0.414 -0.774 0.648 -0.432 0.234 -1.152 0.18 0.054 0.324 0.054 0.738 0 0.72 -0.126 1.638 -0.126 0.936 -0.36 1.872 -0.216 0.954 -0.504 1.746 -0.288 0.81 -0.63 1.296 -0.324 0.504 -0.684 0.504 z m2.466 -11.412 q0.432 -0.504 1.026 -1.26 0.594 -0.774 1.206 -1.62 t1.062 -1.584 q0.414 -0.684 0.594 -1.224 t0.18 -0.882 q0 -0.594 -0.36 -0.594 -0.234 0 -0.594 0.324 -0.342 0.324 -0.72 1.008 -0.27 0.486 -0.576 1.17 t-0.612 1.44 q-0.288 0.756 -0.558 1.44 -0.252 0.666 -0.432 1.152 -0.162 0.486 -0.216 0.63 z m-2.322 11.088 q0.198 0 0.522 -0.738 0.324 -0.72 0.63 -1.71 0.306 -0.972 0.504 -2.052 t0.198 -2.052 q0 -0.486 -0.054 -0.882 -0.234 -0.036 -0.378 -0.072 -0.144 -0.054 -0.234 -0.162 -0.378 1.188 -0.72 2.376 -0.324 1.206 -0.45 1.998 -0.018 0.09 -0.072 0.486 -0.054 0.414 -0.09 0.936 -0.054 0.54 -0.054 1.008 0 0.36 0.054 0.612 0.036 0.252 0.144 0.252 z m7.776 -13.392 q-0.252 0 -0.432 -0.162 -0.162 -0.18 -0.162 -0.414 0 -0.306 0.198 -0.522 0.216 -0.216 0.504 -0.216 0.252 0 0.432 0.18 t0.18 0.45 q0 0.288 -0.216 0.486 t-0.504 0.198 z m-1.98 6.75 q-0.324 0 -0.522 -0.234 -0.18 -0.252 -0.18 -0.648 0 -0.504 0.198 -1.08 0.216 -0.576 0.486 -1.152 0.288 -0.594 0.504 -1.116 0.09 -0.252 0.162 -0.45 t0.072 -0.324 q0 -0.18 -0.162 -0.18 -0.216 0 -0.432 0.27 t-0.396 0.612 q-0.162 0.324 -0.27 0.522 -0.27 0.522 -0.594 1.08 -0.306 0.558 -0.63 1.026 0 0.018 -0.036 0.018 t-0.09 -0.054 -0.036 -0.072 q0.342 -0.486 0.63 -1.026 0.306 -0.558 0.558 -1.062 0.18 -0.378 0.396 -0.774 0.234 -0.414 0.54 -0.684 0.306 -0.288 0.702 -0.288 0.18 0 0.414 0.09 0.27 0.108 0.27 0.468 0 0.18 -0.072 0.432 -0.054 0.234 -0.162 0.54 -0.234 0.612 -0.522 1.242 -0.27 0.612 -0.504 1.242 -0.18 0.486 -0.18 0.864 0 0.414 0.27 0.414 0.252 0 0.774 -0.45 0.522 -0.468 0.972 -1.17 0.45 -0.72 1.08 -1.926 0.018 -0.036 0.072 -0.036 0.036 0 0.072 0.054 0.054 0.036 0.036 0.072 -0.954 1.854 -1.71 2.826 -0.756 0.954 -1.71 0.954 z m4.032 0.09 q-0.774 0 -1.098 -0.522 -0.324 -0.54 -0.324 -1.224 0 -0.414 0.09 -0.81 t0.216 -0.738 q0.198 -0.486 0.558 -1.026 0.378 -0.558 0.9 -0.954 t1.134 -0.396 q0.504 0 0.702 0.288 0.198 0.27 0.198 0.684 0 0.072 0 0.144 0 0.054 -0.018 0.144 -0.054 0.486 -0.378 1.008 t-0.81 0.882 q-0.486 0.342 -1.044 0.342 -0.324 0 -0.576 -0.18 -0.162 0.612 -0.162 1.116 0 0.414 0.144 0.684 0.162 0.27 0.486 0.27 0.378 0 0.9 -0.324 0.54 -0.342 1.152 -1.152 0.63 -0.81 1.278 -2.214 0 -0.018 0.036 -0.018 0.054 0 0.108 0.054 0.072 0.036 0.036 0.072 -0.882 1.998 -1.872 2.934 -0.972 0.936 -1.656 0.936 z m0.036 -2.466 q0.396 0 0.774 -0.288 0.378 -0.306 0.684 -0.756 0.306 -0.468 0.486 -0.936 0.072 -0.198 0.072 -0.45 0 -0.234 -0.09 -0.396 -0.072 -0.18 -0.27 -0.18 -0.324 0 -0.702 0.414 -0.378 0.396 -0.702 0.954 -0.324 0.54 -0.486 0.99 -0.054 0.126 -0.108 0.27 -0.036 0.126 -0.072 0.27 0.216 0.108 0.414 0.108 z m3.42 2.376 q-0.594 0 -0.828 -0.342 -0.216 -0.342 -0.216 -0.828 0 -0.522 0.162 -1.098 0.18 -0.576 0.36 -0.936 0.63 -1.314 1.764 -1.944 1.152 -0.63 2.358 -0.54 0.414 -0.846 0.864 -1.764 0.468 -0.936 0.864 -1.764 0.414 -0.846 0.702 -1.44 0.306 -0.612 0.396 -0.81 0.306 -0.072 0.666 -0.162 0.36 -0.108 0.648 -0.234 -0.18 0.306 -0.576 0.954 -0.378 0.648 -0.882 1.53 -0.486 0.864 -1.026 1.854 t-1.044 1.998 v0.036 q0 0.072 -0.09 0.126 -0.45 0.918 -0.828 1.764 -0.36 0.846 -0.594 1.548 -0.216 0.684 -0.216 1.134 0 0.504 0.342 0.504 0.198 0 0.45 -0.162 t0.486 -0.396 q0.576 -0.576 0.99 -1.296 0.432 -0.72 0.81 -1.44 0 -0.036 0.036 -0.036 0.126 0 0.126 0.144 0 0 -0.09 0.162 t-0.108 0.18 q-0.324 0.63 -0.666 1.206 t-0.828 1.098 q-0.27 0.288 -0.702 0.612 -0.414 0.324 -0.828 0.324 t-0.576 -0.324 q-0.144 -0.324 -0.144 -0.72 0 -0.252 0.036 -0.486 t0.09 -0.414 q-0.126 0.324 -0.45 0.792 -0.306 0.468 -0.702 0.828 -0.378 0.342 -0.756 0.342 z m0.216 -0.27 q0.252 0 0.558 -0.342 0.324 -0.342 0.63 -0.828 0.324 -0.504 0.576 -0.972 0.252 -0.486 0.378 -0.738 l1.134 -2.304 q-0.882 0.018 -1.584 0.486 -0.684 0.468 -1.17 1.188 -0.486 0.702 -0.738 1.44 t-0.252 1.278 q0 0.36 0.108 0.576 0.126 0.216 0.36 0.216 z" aria-label="Verified" />
<path d="m49.017 77.572 c0.6075 0 1.0305 -0.5535 1.0305 -1.2915 0 -0.81 -0.423 -1.2645 -0.981 -1.2645 -0.2745 0 -0.54 0.108 -0.765 0.342 v-0.7875 l0.0135 -0.7155 -0.0585 -0.0405 -0.9 0.1755 v0.1215 l0.351 0.027 v2.304 c0 0.252 -0.0045 0.6345 -9e-3 0.8955 l-0.324 0.027 v0.135 l0.846 0.0585 0.081 -0.3375 c0.2025 0.2385 0.4455 0.351 0.7155 0.351 z m-0.702 -2.1015 c0.1845 -0.153 0.3195 -0.18 0.4635 -0.18 0.3645 0 0.6255 0.288 0.6255 0.981 0 0.801 -0.3015 1.017 -0.6345 1.017 -0.162 0 -0.306 -0.054 -0.4545 -0.1935 z m3.555 -0.252 0.4365 0.045 -0.306 0.9315 -0.3015 0.837 -0.6435 -1.773 0.3735 -0.0405 v-0.1305 h-1.2825 v0.1305 l0.252 0.027 1.026 2.484 c-0.1395 0.3465 -0.2835 0.5805 -0.468 0.7245 l-0.0675 -0.081 c-0.1125 -0.1305 -0.234 -0.225 -0.3915 -0.225 s-0.315 0.081 -0.342 0.2565 c0.0135 0.198 0.234 0.315 0.468 0.315 0.3735 0 0.6705 -0.2655 0.9585 -1.026 l0.9045 -2.4345 0.3015 -0.0405 v-0.1305 h-0.918 z" aria-label="by" />
<path d="m27.344 84.636 c0.73575 0 1.6402 -0.7155 1.6402 -2.0925 0 -1.4512 -0.95175 -2.4232 -2.376 -2.4232 -1.8968 0 -3.3008 1.5322 -3.3008 3.429 0 1.6875 1.1138 2.592 2.6055 2.592 0.57375 0 1.0935 -0.135 1.5458 -0.378 l-0.08775 -0.15525 c-0.39825 0.20925 -0.84375 0.31725 -1.3972 0.31725 -1.3162 0 -2.3558 -0.8775 -2.3558 -2.4232 0 -1.7145 1.2488 -3.159 2.9362 -3.159 1.2622 0 2.1735 0.84375 2.1735 2.1668 0 1.2218 -0.69525 1.8968 -1.2555 1.8968 -0.3375 0 -0.45225 -0.189 -0.35775 -0.6885 l0.39825 -2.1465 -0.0945 -0.06075 -0.3915 0.27675 c-0.1485 -0.20925 -0.324 -0.3105 -0.56025 -0.3105 -0.8775 0 -1.6942 1.1205 -1.6942 2.1668 0 0.68175 0.34425 0.99225 0.81 0.99225 0.37125 0 0.72225 -0.20925 1.0192 -0.62775 0.03375 0.41175 0.29025 0.62775 0.7425 0.62775 z m-0.76275 -0.81 c-0.324 0.37125 -0.54 0.45225 -0.7425 0.45225 -0.31725 0 -0.53325 -0.24975 -0.53325 -0.74925 0 -0.84375 0.5535 -1.7685 1.161 -1.7685 0.189 0 0.3375 0.0675 0.45225 0.2565 z m4.9275 -2.1465 0.65475 0.07425 -0.756 0.74925 -0.7155 0.7155 v-2.565 l0.02025 -1.053 -0.10125 -0.06075 -1.1542 0.216 v0.18225 l0.57375 0.03375 v3.4762 l-0.0135 1.3095 -0.5535 0.054 v0.189 h1.7618 v-0.189 l-0.51975 -0.054 -0.0135 -1.2622 0.4725 -0.459 1.107 1.9642 h1.0935 v-0.189 l-0.513 -0.04725 -1.2285 -2.1668 0.89775 -0.864 0.6615 -0.054 v-0.2025 h-1.674 z m3.7733 3.4222 c0.945 0 1.7348 -0.648 1.7348 -1.863 s-0.8235 -1.863 -1.7348 -1.863 c-0.9045 0 -1.7212 0.65475 -1.7212 1.863 s0.77625 1.863 1.7212 1.863 z m0 -0.216 c-0.6345 0 -1.0125 -0.567 -1.0125 -1.6402 0 -1.08 0.378 -1.647 1.0125 -1.647 s1.0192 0.567 1.0192 1.647 c0 1.0732 -0.38475 1.6402 -1.0192 1.6402 z m5.0558 0.18225 1.1205 -0.0675 v-0.189 l-0.49275 -0.04725 v-2.349 l0.027 -0.91125 -0.0675 -0.07425 -1.134 0.135 v0.16875 l0.53325 0.0675 -0.0135 2.3558 c-0.2835 0.33075 -0.62775 0.5265 -0.9855 0.5265 -0.4185 0 -0.65475 -0.2295 -0.65475 -0.918 v-1.35 l0.03375 -0.91125 -0.07425 -0.07425 -1.1408 0.1215 v0.1755 l0.54 0.081 -0.02025 1.9372 c-0.0068 1.0058 0.3645 1.3568 1.0125 1.3568 0.5265 0 0.9585 -0.2835 1.296 -0.7155 z m4.5022 -0.0675 h1.1948 v-0.189 l-0.4995 -0.054 c-0.0068 -0.37125 -0.0135 -0.9315 -0.0135 -1.3095 v-0.783 c0 -0.92475 -0.37125 -1.2892 -0.97875 -1.2892 -0.46575 0 -0.89775 0.216 -1.3365 0.72225 v-1.4445 l0.02025 -1.053 -0.10125 -0.06075 -1.1408 0.216 v0.18225 l0.57375 0.03375 v3.4762 l-0.0135 1.3095 -0.54 0.054 v0.189 h1.7078 v-0.189 l-0.47925 -0.054 -0.0135 -1.3095 v-1.1408 c0.405 -0.405 0.7695 -0.54 1.0462 -0.54 0.37125 0 0.60075 0.22275 0.60075 0.85725 v0.8235 c0 0.378 -0.0068 0.9315 -0.0135 1.3095 l-0.53325 0.054 v0.189 z m3.4425 0.10125 c0.945 0 1.7348 -0.648 1.7348 -1.863 s-0.8235 -1.863 -1.7348 -1.863 c-0.9045 0 -1.7212 0.65475 -1.7212 1.863 s0.77625 1.863 1.7212 1.863 z m0 -0.216 c-0.6345 0 -1.0125 -0.567 -1.0125 -1.6402 0 -1.08 0.378 -1.647 1.0125 -1.647 s1.0192 0.567 1.0192 1.647 c0 1.0732 -0.38475 1.6402 -1.0192 1.6402 z m5.0558 0.18225 1.1205 -0.0675 v-0.189 l-0.49275 -0.04725 v-2.349 l0.027 -0.91125 -0.0675 -0.07425 -1.134 0.135 v0.16875 l0.53325 0.0675 -0.0135 2.3558 c-0.2835 0.33075 -0.62775 0.5265 -0.9855 0.5265 -0.4185 0 -0.65475 -0.2295 -0.65475 -0.918 v-1.35 l0.03375 -0.91125 -0.07425 -0.07425 -1.1408 0.1215 v0.1755 l0.54 0.081 -0.02025 1.9372 c-0.0067 1.0058 0.3645 1.3568 1.0125 1.3568 0.5265 0 0.9585 -0.2835 1.296 -0.7155 z m3.6652 -3.402 0.648 0.06075 -0.4725 1.3905 -0.486 1.3568 -1.0058 -2.7472 0.60075 -0.06075 v-0.189 h-1.7482 v0.189 l0.42525 0.04725 1.431 3.5302 -0.04725 0.1215 c-0.20925 0.54 -0.46575 0.92475 -0.783 1.134 l-0.08775 -0.0945 c-0.15525 -0.16875 -0.324 -0.27675 -0.513 -0.27675 -0.2025 0 -0.3915 0.0945 -0.432 0.30375 0.027 0.24975 0.324 0.39825 0.64125 0.39825 0.54675 0 0.99225 -0.42525 1.404 -1.5255 l1.3365 -3.5842 0.459 -0.054 v-0.189 h-1.3702 z m3.267 3.4358 c0.945 0 1.7348 -0.648 1.7348 -1.863 s-0.8235 -1.863 -1.7348 -1.863 c-0.9045 0 -1.7212 0.65475 -1.7212 1.863 s0.77625 1.863 1.7212 1.863 z m0 -0.216 c-0.6345 0 -1.0125 -0.567 -1.0125 -1.6402 0 -1.08 0.378 -1.647 1.0125 -1.647 s1.0192 0.567 1.0192 1.647 c0 1.0732 -0.38475 1.6402 -1.0192 1.6402 z m5.0558 0.18225 1.1205 -0.0675 v-0.189 l-0.49275 -0.04725 v-2.349 l0.027 -0.91125 -0.0675 -0.07425 -1.134 0.135 v0.16875 l0.53325 0.0675 -0.0135 2.3558 c-0.2835 0.33075 -0.62775 0.5265 -0.9855 0.5265 -0.4185 0 -0.65475 -0.2295 -0.65475 -0.918 v-1.35 l0.03375 -0.91125 -0.07425 -0.07425 -1.1408 0.1215 v0.1755 l0.54 0.081 -0.02025 1.9372 c-0.0068 1.0058 0.3645 1.3568 1.0125 1.3568 0.5265 0 0.9585 -0.2835 1.296 -0.7155 z m3.699 -3.3885 0.65475 0.07425 -0.756 0.74925 -0.7155 0.7155 v-2.565 l0.02025 -1.053 -0.10125 -0.06075 -1.1542 0.216 v0.18225 l0.57375 0.03375 v3.4762 l-0.0135 1.3095 -0.5535 0.054 v0.189 h1.7618 v-0.189 l-0.51975 -0.054 -0.0135 -1.2622 0.4725 -0.459 1.107 1.9642 h1.0935 v-0.189 l-0.513 -0.04725 -1.2285 -2.1668 0.89775 -0.864 0.6615 -0.054 v-0.2025 h-1.674 z m4.9748 3.4155 c0.297 0 0.513 -0.11475 0.6615 -0.378 l-0.108 -0.0945 c-0.11475 0.135 -0.19575 0.18225 -0.30375 0.18225 -0.1755 0 -0.27 -0.11475 -0.27 -0.50625 v-1.6942 c0 -0.864 -0.378 -1.2285 -1.1948 -1.2285 s-1.3365 0.34425 -1.4512 0.91125 c0.03375 0.16875 0.15525 0.26325 0.33075 0.26325 0.18225 0 0.31725 -0.10125 0.351 -0.38475 l0.0945 -0.49275 c0.16875 -0.06075 0.324 -0.081 0.47925 -0.081 0.53325 0 0.756 0.2025 0.756 0.945 v0.297 c-0.2835 0.07425 -0.594 0.15525 -0.85725 0.2295 -0.9315 0.27 -1.2555 0.61425 -1.2555 1.1542 0 0.567 0.405 0.88425 0.945 0.88425 0.4995 0 0.78975 -0.216 1.1812 -0.64125 0.054 0.39825 0.2565 0.6345 0.64125 0.6345 z m-0.65475 -0.84375 c-0.405 0.378 -0.6345 0.49275 -0.8775 0.49275 -0.3645 0 -0.60075 -0.2025 -0.60075 -0.621 0 -0.39825 0.22275 -0.6885 0.7695 -0.89775 0.2025 -0.07425 0.45225 -0.1485 0.70875 -0.216 z m2.4908 -3.672 c0.23625 0 0.432 -0.16875 0.432 -0.41175 0 -0.23625 -0.19575 -0.41175 -0.432 -0.41175 s-0.42525 0.1755 -0.42525 0.41175 c0 0.243 0.189 0.41175 0.42525 0.41175 z m-0.30375 4.4212 h1.1948 v-0.189 l-0.4995 -0.054 -0.0135 -1.3095 v-1.026 l0.02025 -0.972 -0.08775 -0.054 -1.1948 0.29025 v0.16875 l0.5805 0.03375 c0.0135 0.3375 0.027 0.66825 0.027 1.1272 v0.432 c0 0.3645 -0.0067 0.9315 -0.02025 1.3095 l-0.54 0.054 v0.189 z" aria-label="@kouhouyoukai" />
</g>
<circle cx="50" cy="50" r="49" fill="none" stroke="#78d" stroke-width="2" />
</svg>
